<?xml version="1.0" encoding="utf-8"?>
<!-- Generator: Adobe Illustrator 19.2.0, SVG Export Plug-In . SVG Version: 6.00 Build 0)  -->
<svg version="1.1" id="Layer_1" xmlns="http://www.w3.org/2000/svg" xmlns:xlink="http://www.w3.org/1999/xlink" x="0px" y="0px"
	 viewBox="0 0 512 120" style="enable-background:new 0 0 512 120;" xml:space="preserve">
<style type="text/css">
	.st0{fill:#5CE500;}
	.st1{fill:#FFFFFF;}
</style>
<title>Progress_logo</title>
<path class="st0" d="M95.5,29.3L95.5,29.3v51c-0.1,1.3-0.7,2.4-1.8,3.1l-1.7,1l-12.7,7.3l-8.6,5l-1.8,1V42.6L21.2,15L43.9,1.9
	L46,0.7c1.1-0.6,2.4-0.6,3.6,0L81,18.9l14.5,8.4L95.5,29.3L95.5,29.3z M58.4,48.7l-9.8-5.7L25.7,29.8c-1.1-0.6-2.4-0.6-3.6,0
	L1.8,41.6l-1.8,1l34.5,19.9v39.8l20.3-11.7l1.8-1c1-0.7,1.7-1.8,1.8-3.1V48.7z M0,82.4l23.9,13.8V68.6L0,82.4z"/>
<path class="st1" d="M148.1,27.3h-26v70.5h11.6V70.1h14.6c15.8,0,24.4-7.7,24.4-21.7C172.7,42.1,170.3,27.3,148.1,27.3 M160.9,48.6
	c0,8-4.1,11.2-14.2,11.2h-13V37.7h14.6C156.8,37.7,160.9,41.3,160.9,48.6 M207,46.4l0.9,0.4l-2,10.4l-1.4-0.4
	c-1.1-0.3-2.2-0.5-3.3-0.5c-10.8,0-11.7,8.6-11.7,19v22.4h-10.6V46h10v6.2c2.7-4.2,6-6.4,10.4-6.9C201.9,45,204.6,45.4,207,46.4
	 M233.3,45c-8.4,0-15.2,3.2-19.5,9.3c-4.6,6.4-5.2,13.9-5.2,17.7c0,16.4,9.7,26.9,24.7,26.9c18.3,0,24.7-14.7,24.7-27.3
	c0-7.3-2.1-13.8-6-18.5C247.6,47.8,241.1,45,233.3,45 M233.3,89.4c-8.4,0-13.6-6.7-13.6-17.4s5.2-17.5,13.6-17.5S247,61.2,247,71.8
	C247,82.6,241.8,89.3,233.3,89.4 M347.9,46.4l0.9,0.4l-2,10.4l-1.4-0.4c-1.1-0.3-2.2-0.5-3.3-0.5c-10.8,0-11.7,8.6-11.7,19v22.4
	h-10.7V46h10v6.2c2.7-4.2,6-6.4,10.4-6.9C342.8,45,345.4,45.3,347.9,46.4 M386.3,81.2l-0.2,0.6c-2.2,6.4-7.6,7.7-11.6,7.7
	c-8.1,0-13.3-5.4-13.8-14.1h36.6l0.1-1c0.1-1.4,0.2-2.7,0.1-4.1c0-0.3,0-0.6,0-0.9C396.9,54.8,387.5,45,374,45
	c-7.9,0-14.4,3.1-18.7,9c-3.7,5.3-5.6,11.6-5.5,18c0,16,10,26.7,24.7,26.7c11.5,0,19.3-5.8,22.2-16.4l0.3-1.2L386.3,81.2L386.3,81.2
	z M361,66.1c0.9-7.2,5.8-11.7,12.8-11.7c5.3,0,11.6,3.1,12.5,11.7H361z M300.3,50.3c-3.5-3.6-8.1-5.4-13.8-5.4
	c-15.7,0-22.8,13.8-22.8,26.6c0,13.2,7.1,26.4,22.8,26.4c5,0.1,9.8-1.9,13.4-5.4c0,2.3-0.1,4.4-0.2,5.4c-0.6,8.5-4.7,12.5-12.9,12.5
	c-4.5,0-9.6-1.6-10.6-6l-0.2-1h-10.5l0.2,1.4c1.1,9.1,9.1,14.8,20.9,14.8c10.3,0,17.7-3.9,21.3-11.3c1.7-3.6,2.6-8.7,2.6-15.4V46
	h-10.1L300.3,50.3L300.3,50.3z M287.2,88.5c-3.7,0-12.4-1.7-12.4-17.4c0-10.3,4.9-16.7,12.7-16.7c6.1,0,12.5,4.4,12.5,16.7
	C300,82,295.2,88.5,287.2,88.5 M446.8,82.2c0,8.2-6.8,16.5-22.1,16.5c-13.5,0-21.5-5.8-22.6-16.5l-0.1-1.1h10.5l0.2,0.8
	c1.3,6.4,7.4,7.7,12.2,7.7c5.3,0,11-1.7,11-6.5c0-2.4-1.6-4.2-4.7-5.2c-1.9-0.6-4.1-1.2-6.6-1.9c-4.2-1.2-8.5-2.4-11.1-3.3
	c-6.6-2.3-10.3-6.9-10.3-12.6c0-10.4,10.2-15.1,20.2-15.1c13.5,0,20.4,5.1,21.3,15.5l0.1,1.1h-10.3l-0.1-0.8c-1-6-7-6.9-10.5-6.9
	c-3,0-10,0.5-10,5.5c0,2.3,1.9,3.9,5.9,5.1c1.2,0.3,2.9,0.8,5,1.3c4.2,1.1,9.5,2.5,12.1,3.4C443.5,71.6,446.8,75.9,446.8,82.2
	 M496.2,82.3c0,8.2-6.8,16.5-22.1,16.5c-13.5,0-21.5-5.8-22.6-16.5l-0.1-1.1H462l0.1,0.7c1.3,6.4,7.4,7.7,12.2,7.7
	c5.3,0,11-1.7,11-6.5c0-2.4-1.6-4.2-4.7-5.2c-1.9-0.6-4.1-1.2-6.6-1.9c-4.2-1.2-8.5-2.4-11.1-3.3c-6.6-2.3-10.3-6.9-10.3-12.6
	c0-10.4,10.2-15.1,20.2-15.1c13.5,0,20.4,5.1,21.3,15.5l0.1,1.1h-10.3l-0.1-0.8c-1-6-7-6.9-10.5-6.9c-3,0-10,0.5-10,5.5
	c0,2.3,1.9,3.9,5.9,5.1c1.2,0.3,2.9,0.8,5,1.3c4.2,1.1,9.5,2.5,12.1,3.4C492.9,71.6,496.3,75.9,496.2,82.3"/>
<path class="st1" d="M504.7,51.5c-4.1,0-7.4-3.2-7.4-7.3s3.2-7.4,7.3-7.4S512,40,512,44c0,0,0,0.1,0,0.1c0.1,4-3.1,7.3-7.1,7.4
	C504.8,51.5,504.8,51.5,504.7,51.5 M504.7,38c-3.4-0.1-6.2,2.6-6.2,6c-0.1,3.4,2.6,6.2,6,6.2c3.4,0.1,6.2-2.6,6.2-6c0,0,0-0.1,0-0.1
	c0.1-3.3-2.4-6-5.7-6.1C504.9,38,504.8,38,504.7,38 M503.9,45.5v2.5h-2.2v-7.7h3.6c1.4-0.2,2.7,0.9,2.8,2.3c0,0.1,0,0.3,0,0.4
	c0.1,1-0.5,2-1.5,2.3l1.8,2.7H506l-1.5-2.5L503.9,45.5L503.9,45.5z M505.1,42h-1.2v1.7h1.2c0.5,0.1,0.9-0.2,1-0.7c0,0,0-0.1,0-0.1
	c0-0.5-0.4-0.9-0.9-0.9C505.2,42,505.1,42,505.1,42"/>
</svg>